<?xml version="1.0" encoding="utf-8"?>
<!-- Generator: Adobe Illustrator 23.0.3, SVG Export Plug-In . SVG Version: 6.00 Build 0)  -->
<svg version="1.1" id="Layer_1" xmlns="http://www.w3.org/2000/svg" xmlns:xlink="http://www.w3.org/1999/xlink" x="0px" y="0px"
	 viewBox="0 0 1920 1080" style="enable-background:new 0 0 1920 1080;" xml:space="preserve">
<style type="text/css">
	.st0{display:none;opacity:0.1;fill:#7BBEFA;enable-background:new    ;}
	.st1{fill:#7BBEFA;}
	.st2{opacity:0.45;}
	.st3{opacity:0.25;fill:#7BBEFA;enable-background:new    ;}
	.st4{font-family:'TwCenMT-CondensedExtraBold' !important;}
	.st5{font-size:227.2309px;}
	.st6{font-size:35.0013px;}
	.st7{fill:none;stroke:#7BBEFA;stroke-miterlimit:10;}
	.st8{fill:none;stroke:#7BBEFA;stroke-miterlimit:10;stroke-dasharray:11.9618,11.9618;}
	.st9{opacity:0.5;fill:#7BBEFA;stroke:#7BBEFA;stroke-width:2.912;stroke-miterlimit:10;enable-background:new    ;}
	.st10{font-size:42px;}
</style>
<rect class="st0" width="1920" height="1080"/>
<g>
	<g>
		<path class="st1" d="M-30.5,1092.5c-1.4,0-2.8,0-4.2-0.1c-1.3-0.1-6.7,0-2.1-0.1c-3.3,0-7.4-1.4-10.5-2.4c-1.7-0.5-3.4-1.1-5-1.7
			c-1.4-0.5-2.4-0.1,0.6,0.3c-0.6-0.1-1.9-0.9-2.4-1.1c-3.1-1.6-6.2-3.3-9.1-5.3c-0.7-0.5-1.4-1-2.1-1.5c0.4,0.3,3,2.5,0.5,0.4
			c-1.3-1.1-2.6-2.3-3.9-3.5c-2.5-2.4-4.8-5-7.1-7.7c3,3.6-0.5-0.8-1-1.7c-1-1.5-1.9-3-2.7-4.5c-0.8-1.3-1.4-2.7-2.1-4.1
			c-0.3-0.6-1.5-3.2-0.5-0.9c1.2,2.5-0.4-1-0.6-1.5c-1.2-3.4-2.2-6.8-2.9-10.3c-0.2-0.7-0.9-5.6-0.6-3s0-0.4-0.1-1
			c-0.1-1.2-0.2-2.3-0.2-3.5c-0.1-3.3,0-6.5,0.3-9.8c0-0.4,0.3-2.8,0-0.3c-0.3,2.6,0.1-0.3,0.2-1c0.4-2,0.8-4,1.3-5.9
			c0.5-1.7,1-3.4,1.6-5.1c0.3-0.8,0.6-1.7,0.9-2.5c0.5-1.4,0.1-2.2-0.3,0.6c0.3-2.9,3.4-6.8,5-9.3c0.9-1.5,2-2.9,3-4.3
			c-2.3,3.3,0.3-0.3,1.3-1.4c2.3-2.6,4.8-5.1,7.4-7.3c0.7-0.6,1.3-1.1,2-1.7c-0.4,0.4-3.2,2.2-0.5,0.5c1.5-1,2.9-2,4.4-2.9
			c1.3-0.8,2.6-1.6,4-2.3c1.3-0.7,6-3.4,2.3-1.3c2.8-1.6,6.5-2.4,9.5-3.1c1.8-0.4,3.5-0.8,5.3-1.1c0.6-0.1,3.6-0.5,1-0.2
			c-2.8,0.3,1.2-0.1,1.7-0.1c3-0.2,6.1-0.3,9.1-0.1c0.7,0,6.4,0.5,3.8,0.2s0.3,0.1,1,0.2c1.1,0.2,2.2,0.4,3.3,0.7
			c3.3,0.7,6.5,1.8,9.6,2.9c4.2,1.5-2.2-1.2,1.8,0.8c1.8,0.9,3.5,1.8,5.2,2.8c1.5,0.9,3,1.8,4.4,2.8c0.7,0.5,1.4,1,2.1,1.5
			c-0.1-0.1-2.5-2.1-1.1-0.8c2.7,2.5,5.6,4.8,8.1,7.6c1.2,1.3,2.3,2.6,3.4,4c-2.3-2.8-0.2-0.2,0.7,1.1c2.1,3.1,3.8,6.4,5.5,9.7
			c0.4,0.8,1.8,2.8-0.2-0.7c0.4,0.7,0.7,1.7,1,2.5c0.5,1.5,1,2.9,1.5,4.4c0.5,1.7,1,3.5,1.3,5.2c0.2,0.9,0.4,1.8,0.5,2.7
			c0.2,1.4,1.4,3.5,0,0c1,2.5,0.5,6.4,0.5,9c0,1.9-0.1,3.7-0.3,5.6c-0.1,0.6-0.3,3.6-0.1,1c0.3-2.8-0.3,1.5-0.3,1.7
			c-0.7,4-1.8,7.9-3.2,11.7c-0.3,0.8-0.6,1.8-1,2.5c0.6-1,1.2-2.6,0.2-0.7c-1,2-2,3.9-3.1,5.8c-0.9,1.5-1.8,3-2.8,4.4
			c-0.5,0.7-1,1.4-1.5,2.1c2.4-3.7,0.2-0.3-0.4,0.5c-2.5,3-5.3,5.8-8.3,8.3c-0.5,0.4-1,0.8-1.5,1.3c-1.5,1.5,2.8-1.9,0,0
			c-1.6,1.1-3.2,2.2-4.9,3.2s-3.4,2-5.2,2.8c-0.5,0.2-1.8,1-2.4,1.1c2-0.3,2.3-0.9,0,0c-3.8,1.4-7.6,2.5-11.6,3.3
			c-0.9,0.2-1.8,0.3-2.7,0.5c-2.2,0.4,3.5-0.2,0,0C-25.9,1092.3-28.2,1092.5-30.5,1092.5c-9.4,0.1-18.4,8.2-18,18
			c0.4,9.7,7.9,18.1,18,18c39.4-0.4,73.9-25.4,87.1-62.4c12.5-35.1,0.6-76.9-28.4-100.3c-30.1-24.3-72.8-28.5-106.3-8.1
			s-49.9,59.7-42.4,98c8.3,41.9,47.6,72.8,90,72.8c9.4,0,18.4-8.3,18-18C-12.9,1100.7-20.4,1092.5-30.5,1092.5z"/>
	</g>
</g>
<g class="st2">
	<path class="st1" d="M1897.5,89.5L1897.5,89.5c-40.9,0-74-33.1-74-74l0,0c0-40.9,33.1-74,74-74l0,0c40.9,0,74,33.1,74,74l0,0
		C1971.5,56.4,1938.4,89.5,1897.5,89.5z"/>
</g>
<text transform="matrix(1.158126e-10 -1.1389 1 7.929047e-11 168.9756 632.4893)" class="st3 st4 st5">KHAI</text>
<text transform="matrix(0.9973 -0.8178 0.6341 0.7733 1823.3885 518.2791)" class="st3 st4 st6">K</text>
<g>
	<g>
		<path class="st7" d="M43.1,1000.9c1.8-0.8,3.7-1.6,5.5-2.4"/>
		<path class="st8" d="M59.6,993.8c960.4-409.9,1092.2,235.7,1493.9-107.3c296.4-253.1,30.9-564.9-20.7-620.4"/>
		<path class="st7" d="M1528.7,261.8c-2.7-2.8-4.2-4.3-4.2-4.3"/>
	</g>
</g>
<g>
	<rect x="484.2" y="269.2" class="st9" width="31.3" height="31.3"/>
	<rect x="473" y="258" class="st7" width="31.3" height="31.3"/>
</g>
<text transform="matrix(1 0 0 1 1724.293 865.2607)" class="st1 st4 st10"> . . . . . . . .</text>
<text transform="matrix(1 0 0 1 1756.293 889.2607)" class="st1 st4 st10">. . . . . . .</text>
<text transform="matrix(1 0 0 1 1777.8929 913.2607)" class="st1 st4 st10">. . . . . .</text>
<text transform="matrix(1 0 0 1 1756.293 937.2607)" class="st1 st4 st10">. . . . . . .</text>
<text transform="matrix(1 0 0 1 1712.8929 961.2607)" class="st1 st4 st10">. . . . . . . . .</text>
<text transform="matrix(1 0 0 1 1734.593 985.2607)" class="st1 st4 st10">. . . . . . . .</text>
<text transform="matrix(1 0 0 1 1691.193 1009.2607)" class="st1 st4 st10">. . . . . . . . . .</text>
<text transform="matrix(1 0 0 1 1669.593 1033.2607)" class="st1 st4 st10">. . . . . . . . . . .</text>
<text transform="matrix(1 0 0 1 1647.8929 1057.2607)" class="st1 st4 st10">. . . . . . . . . . . .</text>
<polygon class="st7" points="179.9,825.6 184.5,835.1 195,836.6 187.4,844 189.2,854.4 179.9,849.5 170.5,854.4 172.3,844 
	164.7,836.6 175.2,835.1 "/>
<polygon class="st7" points="1698.2,90.5 1683.8,90.5 1676.6,103 1683.8,115.5 1698.2,115.5 1705.4,103 "/>
<rect x="603.5" y="962.5" transform="matrix(0.7071 -0.7071 0.7071 0.7071 -508.5843 720.1472)" class="st7" width="23" height="23"/>
<path class="st7" d="M881.9,60.1L881.9,60.1c-4.5-4.5-4.5-11.8,0-16.3l0,0c4.5-4.5,11.8-4.5,16.3,0l0,0c4.5,4.5,4.5,11.8,0,16.3l0,0
	C893.6,64.6,886.4,64.6,881.9,60.1z"/>
</svg>
