<?xml version="1.0" encoding="utf-8"?>
<!-- Generator: Adobe Illustrator 23.0.3, SVG Export Plug-In . SVG Version: 6.00 Build 0)  -->
<svg version="1.1" id="Layer_1" xmlns="http://www.w3.org/2000/svg" xmlns:xlink="http://www.w3.org/1999/xlink" x="0px" y="0px"
	 viewBox="0 0 1080 1080" enable-background="new 0 0 1080 1080" xml:space="preserve">
<path opacity="0.4" fill="#7BBEFA" d="M998.8,540.6v199.1c0,218.2-229.6,360-424.7,262.4l-249-124.5L176,803.1
	c-216.2-108.2-216.2-416.7,0-524.9l149.1-74.6L574,79.1c195.1-97.6,424.7,44.3,424.7,262.4V540.6z"/>
<linearGradient id="XMLID_3_" gradientUnits="userSpaceOnUse" x1="573.7236" y1="46.4263" x2="573.7236" y2="1032.3165">
	<stop  offset="6.713014e-07" style="stop-color:#7BBEFA"/>
	<stop  offset="0.4815" style="stop-color:#79BDFA"/>
	<stop  offset="0.7512" style="stop-color:#71BAFB"/>
	<stop  offset="0.9682" style="stop-color:#63B4FC"/>
	<stop  offset="1" style="stop-color:#60B3FC"/>
</linearGradient>
<path id="XMLID_1_" fill="url(#XMLID_3_)" d="M81.3,539.4V340.3C81.3,122.1,310.9-19.8,506,77.8l248.9,124.5L904,276.9
	c216.2,108.2,216.2,416.7,0,524.9l-149.1,74.6L506,1000.9c-195.1,97.6-424.7-44.3-424.7-262.4V539.4z"/>
</svg>
