<svg xmlns="http://www.w3.org/2000/svg" data-name="Layer 1" viewBox="0 0 72 72"><path d="M36 23a1 1 0 01-1-1V20a1 1 0 012 0v2A1 1 0 0136 23zM43.071 25.929a1 1 0 01-.707-1.707l1.414-1.414a1 1 0 011.414 1.414l-1.414 1.414A1 1 0 0143.071 25.929zM48 33H46a1 1 0 010-2h2a1 1 0 010 2zM44.485 41.485a1 1 0 01-.707-.293l-1.414-1.414a1 1 0 011.414-1.414l1.414 1.414a1 1 0 01-.707 1.707zM29 25.929a1 1 0 01-.707-.293l-1.414-1.414a1 1 0 111.414-1.414l1.414 1.414A1 1 0 0129 25.929zM26.071 33h-2a1 1 0 110-2h2a1 1 0 010 2zM27.586 41.485a1 1 0 01-.707-1.707l1.414-1.414a1 1 0 011.414 1.414l-1.414 1.414A.993.993 0 0127.586 41.485zM36 41a1 1 0 01-1-1V37a1 1 0 01.293-.707l2-2a1 1 0 011.414 1.414L37 37.414V40A1 1 0 0136 41z"/><path d="M36,38a1,1,0,0,1-.707-.293l-2-2a1,1,0,0,1,1.414-1.414l2,2A1,1,0,0,1,36,38Z"/><path d="M63 54H9a3 3 0 01-3-3V17a3 3 0 013-3h4a1 1 0 010 2H9a1 1 0 00-1 1V51a1 1 0 001 1H63a1 1 0 001-1V17a1 1 0 00-1-1H59a1 1 0 010-2h4a3 3 0 013 3V51A3 3 0 0163 54zM46 66H26a1 1 0 01-1-1V63a5.006 5.006 0 015-5H42a5.006 5.006 0 015 5v2A1 1 0 0146 66zM27 64H45V63a3 3 0 00-3-3H30a3 3 0 00-3 3z"/><path d="M41,60H31a1,1,0,0,1-1-1V53a1,1,0,0,1,1-1H41a1,1,0,0,1,1,1v6A1,1,0,0,1,41,60Zm-9-2h8V54H32Z"/><path d="M63,54H9a3,3,0,0,1-3-3V47a1,1,0,0,1,1-1H65a1,1,0,0,1,1,1v4A3,3,0,0,1,63,54ZM8,48v3a1,1,0,0,0,1,1H63a1,1,0,0,0,1-1V48Z"/><path d="M59,48H13a1,1,0,0,1-1-1V11a5.006,5.006,0,0,1,5-5H55a5.006,5.006,0,0,1,5,5V47A1,1,0,0,1,59,48ZM14,46H58V11a3,3,0,0,0-3-3H17a3,3,0,0,0-3,3Z"/><circle cx="20" cy="12" r="2"/><circle cx="25" cy="12" r="2"/><circle cx="30" cy="12" r="2"/><path d="M59,18H13a1,1,0,0,1-1-1V11a5.006,5.006,0,0,1,5-5H55a5.006,5.006,0,0,1,5,5v6A1,1,0,0,1,59,18ZM14,16H58V11a3,3,0,0,0-3-3H17a3,3,0,0,0-3,3Z"/><path d="M54 13H48a1 1 0 010-2h6a1 1 0 010 2zM45 13H43a1 1 0 010-2h2a1 1 0 010 2z"/><path d="M38,45H34a3,3,0,0,1-3-3V38.694a.964.964,0,0,0-.318-.723,8,8,0,1,1,10.622.012.944.944,0,0,0-.3.711V42A3,3,0,0,1,38,45ZM35.983,26a6.342,6.342,0,0,0-1.2.115,6,6,0,0,0-2.774,10.359A2.969,2.969,0,0,1,33,38.694V42a1,1,0,0,0,1,1h4a1,1,0,0,0,1-1V38.694a2.941,2.941,0,0,1,.978-2.208,5.994,5.994,0,0,0-4-10.483Z"/><path d="M40,41H32a1,1,0,0,1,0-2h8a1,1,0,0,1,0,2Z"/></svg>