<?xml version="1.0" encoding="utf-8"?>
<!-- Generator: Adobe Illustrator 23.0.3, SVG Export Plug-In . SVG Version: 6.00 Build 0)  -->
<svg version="1.1" id="Layer_1" xmlns="http://www.w3.org/2000/svg" xmlns:xlink="http://www.w3.org/1999/xlink" x="0px" y="0px"
	 viewBox="0 0 1080 1080" enable-background="new 0 0 1080 1080" xml:space="preserve">
<path d="M-0.1,292.9c0,87.5,71.2,158.7,158.6,158.7c36.8,0,70.7-12.6,97.6-33.7c6.4-5,7.5-5.6,13-11.5c-7.3-36.3-9.6-42.2-25.4-70.8
	c-4.4,8.9-10.3,17-17.1,24c-17.3,17.7-41.5,28.7-68.1,28.7c-52.6,0-95.4-42.8-95.4-95.4c0-52.6,42.8-95.4,95.4-95.4
	c20.6,0,39.7,6.8,55.4,17.9c56,39.5,75.1,97.2,89.4,143.5c5.4,17.6,9.7,36,12.9,55.3c15.7,94.6,25.7,190.2,40.6,285
	c17.2,109,53.9,209.2,147.3,277.7c56.5,41.4,122,64.5,190.9,72c65.7,7.2,132.1,6.9,202.3,10c0-51.1,2.5-97.4-0.6-143.4
	c-3.8-57-15.6-112.5-37.4-166.3c-20.5-50.7-56.8-86.4-100.8-120.6c12.6-6,23.4-11.2,34.1-16.4c129-61.5,204.5-167.6,237.8-302
	c23.2-93.4,33.2-190.1,49.7-288.1c-54.6,0-101.7-2.5-148.6,0.5C838,28.5,745.7,43.5,656.8,75.2c-100.5,35.8-181.3,95.8-233,190.9
	c-5.8,10.7-9.4,25.8-6.8,37.2c8.8,38.4,20.9,76.1,31.3,112.6c5.3-18.9,10.8-39.6,16.7-60.2c25.5-89.2,83.2-150.3,164.7-191.9
	c65.1-33.3,135.4-48.2,206.4-58.9c51.3-7.7,103.4-9.8,160-14.7c-4.6,37.2-8.5,69.7-12.6,102.1c-9.3,74.6-30.2,146.2-66.1,212
	C874.9,482.4,808.3,536.5,724,562.9c-80.2,25.2-163,42-248.5,63.5c1.4,15.6,3.4,36.7,5.8,62.7c36.1-5.1,70.7-10.9,105.5-14.6
	c77.5-8.2,150.5,1.9,193.1,76.1c20.1,35,30.1,76.7,38.8,116.6c7,32,4.8,66,7.5,99c1.3,15.9-3.6,22.8-20.6,21.9
	c-84.1-4.1-167.6-13.1-242-56.2c-59.3-34.4-93.1-90.3-114.5-154.2c-24.9-74.4-33.1-151.6-40-229.3c-8.3-93.5-22.8-186.3-62.3-272.2
	c-9.4-20.6-20.7-39.6-33.7-57.2c-4.8-6.6-9.8-13-15-19.2c-0.4-0.5-0.9-1.1-1.4-1.6c-35.2-38.5-87.7-64.1-138.3-64.1
	c-21.5,0-42,4.3-60.7,12.1C40.4,170.2-0.1,227-0.1,292.9z"/>
</svg>
