<?xml version="1.0" encoding="utf-8"?>
<!-- Generator: Adobe Illustrator 23.0.3, SVG Export Plug-In . SVG Version: 6.00 Build 0)  -->
<svg version="1.1" id="Layer_1" xmlns="http://www.w3.org/2000/svg" xmlns:xlink="http://www.w3.org/1999/xlink" x="0px" y="0px"
	 viewBox="0 0 740 75" enable-background="new 0 0 740 75" xml:space="preserve">
<g>
	<g>
		<path d="M290.2,56.6c-3.8,3.6-8.2,5.4-13.3,4.9c-6.8-0.6-13-6.6-13.8-13.5c-0.1-0.9-0.2-2-0.2-2.9c0-9.8,0-19.4,0-29.2
			c0-1.6,0.5-2.3,2.2-2.1c0.8,0.1,1.6,0,2.4,0c3.1,0,3.1,0,3.1,3c0,9.3,0,18.6,0,27.9c0,0.7,0,1.5,0.1,2.2c0.4,4,3.6,7,7.6,7
			c4,0.1,7.4-2.8,7.9-6.7c0.2-1.1,0.2-2.2,0.2-3.3c0-9.1,0-18.4,0-27.5c0-2.6,0.1-2.7,2.5-2.7c5.9,0,5.1-0.8,5.1,5
			c0,8.8,0,17.6,0,26.5c0,4.8,2.7,8.2,6.7,8.6c4.7,0.5,8.4-2.5,8.9-7.2c0.1-0.9,0.1-1.9,0.1-2.8c0-9.2,0-18.5,0-27.7
			c0-2.3,0.1-2.5,2.3-2.5c6.2,0.1,5.2-0.8,5.2,5.2c0.1,8.9,0.1,17.8,0,26.6c0,7.5-4.5,13.7-11.5,15.5c-5.1,1.4-9.7,0.3-13.9-2.9
			C291.4,57.7,290.9,57.3,290.2,56.6z"/>
		<path d="M509.9,41.5c-3.4,0-6.4-0.1-9.5,0c-1.8,0.1-2.4-0.6-2.3-2.4c0.1-1.2,0.1-2.5,0-3.6c0-1.2,0.5-1.8,1.8-1.8
			c5.3,0,10.7,0,16,0c1.2,0,1.8,0.6,1.8,1.8c0,8.1,0,16.2,0,24.2c0,1.3-0.6,1.9-1.9,1.9c-8-0.1-15.9,0.2-23.9-0.2
			c-12-0.6-21.8-11.8-21.5-24.2c0.3-13.4,10.6-23.5,24-23.6c6.9,0,13.9,0,20.8,0c2.3,0,2.5,0.2,2.5,2.5c0,1.1-0.1,2,0,3.1
			c0.1,1.6-0.6,2.1-2.2,2.1c-6.7-0.1-13.5,0-20.2,0c-5.7-0.1-10.5,1.8-13.9,6.4c-3.7,5.1-4.4,10.7-2,16.3c2.4,5.7,6.9,9.2,13.2,9.6
			c5.3,0.3,10.7,0.1,16,0.1c0.4,0,1.2-0.5,1.2-0.9C509.9,49.3,509.9,45.5,509.9,41.5z"/>
		<path d="M564.8,37.8c3.3,3.5,4.1,7.8,3.9,12.4c-0.1,3-0.1,6.1,0,9.1c0,1.6-0.5,2.3-2.2,2.3c-6.4-0.1-5.4,0.7-5.5-5.4
			c0-2.8,0-5.6,0-8.4c-0.1-3.8-2.5-6.2-6.2-6.2c-8,0-15.9,0-23.9-0.1c-1.5,0-1.9,0.5-1.8,2c0.1,5.2,0,10.5,0,15.8
			c0,2.2-0.2,2.4-2.4,2.4c-6.1,0-5.2,0.7-5.2-5.2c0-6.7,0-13.3,0-20c0-2.4,0.2-2.7,2.6-2.7c10.1,0,20.2,0,30.3,0
			c4.6,0,7.4-3.2,6.6-7.5c-0.6-2.9-2.8-4.8-6-4.9c-5.3-0.1-10.7,0-16,0c-5.1,0-10.1-0.1-15.2,0c-1.7,0-2.3-0.5-2.3-2.2
			c0.1-6.5-0.8-5.5,5.3-5.5c9-0.1,17.8,0.1,26.8-0.1c6.4-0.1,11.1,2.5,13.8,8.2c2.6,5.5,1.5,10.7-2.2,15.5
			C565.1,37.4,565,37.4,564.8,37.8z"/>
		<path d="M720.5,41.6c-10.7,0-21.1,0-31.8,0c0,0.7-0.1,1.4-0.1,2c0,5.2,0,10.4,0,15.6c0,2.2-0.2,2.4-2.4,2.4c-1.1,0-2.2,0-3.3,0
			c-1.4,0.1-2-0.6-2-2c0-14.7,0-29.4,0-44c0-1.4,0.6-2,2-2c6.7,0.1,5.6-0.9,5.7,5.5c0.1,4.3,0.1,8.5,0,12.9c0,1.2,0.4,1.8,1.7,1.7
			c9.5,0,19.1,0,28.6,0c1.3,0,1.7-0.5,1.7-1.7c-0.1-5.3,0-10.7,0-16c0-2.2,0.2-2.4,2.4-2.4c6.1,0.1,5.2-0.8,5.2,5.2
			c0,13.3,0,26.6,0,40.1c0,2.6-0.2,2.8-2.7,2.8c-5.8,0-5,0.5-5.1-5C720.5,51.7,720.5,46.9,720.5,41.6z"/>
		<path d="M345.5,13.7c13.1,0.1,23.6,10.8,23.6,24.1c-0.1,13.2-10.8,24-23.8,23.9c-13.1-0.2-23.6-11-23.4-24.2
			C322,24.3,332.5,13.6,345.5,13.7z M345.4,53.9c8.9,0,16-7.1,16-16.2c0-9-6.9-16.1-15.8-16.2c-8.9-0.1-16,7-16.1,16.1
			C329.4,46.6,336.5,53.9,345.4,53.9z"/>
		<path d="M647.8,13.8c5.4,0,10.7-0.2,16.2,0c6.9,0.3,12.4,6.3,12.7,13.5c0.3,6.8-5,13.3-11.7,14c-3.6,0.4-7.4,0.3-11,0.3
			c-5,0-10,0.1-15,0c-1.4,0-1.8,0.4-1.8,1.8c0.1,5.3,0,10.7,0.1,16c0,1.8-0.6,2.4-2.4,2.4c-6.2-0.1-5.3,0.6-5.3-5.2
			c0-6.7,0-13.5,0-20.2c0-2.3,0.3-2.5,2.5-2.5c10.1,0,20.3,0,30.5,0c4.4,0,7.2-3.1,6.5-7.2c-0.4-3-2.8-5.1-6-5.2
			c-4.6-0.1-9.1,0-13.8-0.1c-5.8,0-11.5,0-17.2,0c-2.3,0-2.5-0.2-2.5-2.3c0-6.3-0.7-5.3,5.3-5.4C639.1,13.6,643.4,13.7,647.8,13.8
			C647.8,13.7,647.8,13.7,647.8,13.8z"/>
		<path d="M599.4,27.9c-1.8,3.3-3.4,6-5,8.9c-4.3,7.7-8.5,15.4-12.8,23.2c-0.7,1.2-1.5,1.9-2.9,1.8c-1.3-0.1-2.7,0-4,0
			c-2.3-0.1-2.7-0.7-1.6-2.7c3.7-6.7,7.4-13.4,11.1-20.1c4.4-8,8.9-16.1,13.3-24.1c0.4-0.7,1.2-1.3,1.8-2c0.6,0.6,1.4,1.2,1.8,1.9
			c8.1,14.6,16.2,29.2,24.2,43.9c1.4,2.5,1,2.8-1.9,3.1c-4.1,0.5-6.3-1-8.2-4.7c-4.6-9.1-9.9-18-14.8-27.1
			C600.3,29.5,599.9,28.8,599.4,27.9z"/>
		<path d="M373,37.6c0-7.2,0-14.3,0-21.5c0-2.2,0.2-2.4,2.4-2.4c1.1,0,2.2,0,3.3,0c1.4-0.1,2,0.5,2,2c-0.1,4,0,8.1,0,12.1
			c0,8,0,16.1,0,24.1c0,1.6,0.4,2.1,2,2c11.6-0.1,23.3,0,34.9,0c2.6,0,2.8,0.1,2.7,2.7c-0.1,5.9,0.8,5.2-5,5.2
			c-13.1,0-26.3,0-39.4,0c-2.7,0-2.8-0.1-2.8-2.8C373,51.8,373,44.7,373,37.6z"/>
		<path d="M441.9,33.8c5.2,0,10.4,0,15.6,0c1.7,0,2.3,0.6,2.2,2.3c-0.1,6.4,0.7,5.5-5.3,5.6c-6.7,0-13.6,0.1-20.3,0
			c-1.6,0-2.2,0.4-2.2,2.1c0.1,5.2,0.1,10.3,0,15.4c0,2.4-0.2,2.6-2.5,2.6c-6.1,0-5.2,0.6-5.2-5.2c0-6.6,0-13.1,0-19.6
			c0-2.9,0.1-3,2.9-3C432.1,33.8,437,33.8,441.9,33.8z"/>
		<path d="M447.7,21.5c-7,0-14,0-21.1,0c-2.2,0-2.5-0.2-2.4-2.4c0-6.2-0.7-5.3,5.2-5.3c13.1,0,26.3,0,39.4,0c2.6,0,2.8,0.1,2.7,2.7
			c0,5.9,0.6,5-5.1,5.1C460.2,21.5,453.9,21.5,447.7,21.5z"/>
	</g>
	<g>
		<polygon points="213.2,44.7 246.3,13 243.9,24.2 197.8,62 		"/>
		<polygon points="201.2,13 201.2,20.9 204,16.4 234.1,62 241.9,48.8 235.1,52.2 207.7,16.5 211.5,16.6 211.3,13 		"/>
	</g>
	<g>
		<path d="M24.3,54.1c0,1.6,0.2,2.7,0.5,3.3c0.3,0.6,0.8,1,1.5,1.3c0.5,0.2,2,0.3,4.2,0.3V62H11.6V59h1.5c1.5,0,2.5-0.1,3-0.4
			c0.5-0.3,1-0.8,1.2-1.5c0.3-0.7,0.4-1.9,0.4-3.6V21.2c0-1.7-0.1-2.9-0.4-3.5c-0.3-0.6-0.7-1.1-1.2-1.3c-0.5-0.3-1.7-0.4-3.4-0.4
			h-1.1V13h18.9V16h-1.3c-1.5,0-2.6,0.2-3.3,0.6c-0.6,0.4-1.1,1-1.3,1.8c-0.2,0.6-0.3,1.5-0.3,2.9V54.1z"/>
		<path d="M40.6,34.2l-2.5,3.3l2.4,3.2l9.6,12.8c1.4,1.8,2.4,3,3.2,3.7c0.8,0.7,1.6,1.1,2.5,1.4c0.8,0.3,2.1,0.4,3.9,0.4V62H39V59
			h1.2c1.4,0,2.2,0,2.5-0.1c0.4-0.1,0.7-0.3,0.9-0.6c0.2-0.3,0.3-0.6,0.3-0.9c0-0.6-0.8-2-2.4-4.2l-9.4-12.6l-2.4-3.2l2.4-3.3
			l9.4-12.6c1.6-2.2,2.4-3.6,2.4-4.2c0-0.3-0.1-0.6-0.3-0.9c-0.2-0.3-0.5-0.5-0.9-0.6C42.4,16,41.6,16,40.2,16H39V13h20.8V16
			c-1.8,0-3.1,0.1-3.9,0.4c-0.8,0.3-1.7,0.7-2.5,1.4c-0.8,0.7-1.9,1.9-3.2,3.7L40.6,34.2z"/>
		<path d="M160.4,59c-1.3,0-2.3-0.3-3.1-1c-0.8-0.7-1.5-2-2.3-4.1l-4.9-13.2l-2.4-6.5L139.8,13h-5.7l1.4,6.3l1.5,4.1l3.9,10.8
			l2.3,6.5l4.5,12.6c0.7,1.9,1,3.1,1,3.6c0,0.7-0.3,1.2-1,1.7c-0.3,0.2-1.1,0.4-2.2,0.4c-0.5,0-1.1,0-1.6,0.1V62h17.4V59H160.4z"/>
		<path d="M134.1,13l-7.9,21.2l-2.4,6.5l-4.9,13.2c-0.7,2.1-1.5,3.4-2.3,4.1c-0.8,0.7-1.8,1-3.1,1h-0.8V62h17.4V59
			c-0.6,0-1.1-0.1-1.6-0.1c-1.1,0-1.9-0.1-2.2-0.4c-0.7-0.4-1-1-1-1.7c0-0.5,0.3-1.7,1-3.6l4.5-12.6l2.3-6.5l3.9-10.8l1.5-4.1
			l1.4-6.3H134.1z"/>
		<path d="M177.1,22.2c0-2,0.1-3.3,0.4-4c0.3-0.7,0.7-1.2,1.3-1.6c0.6-0.4,1.6-0.6,2.9-0.6h1.4V13h-18.7V16h1.5
			c1.4,0,2.4,0.1,2.9,0.4c0.6,0.3,1,0.8,1.2,1.4c0.3,0.6,0.4,1.8,0.4,3.7v32.3c0,1.7-0.1,2.9-0.4,3.5c-0.3,0.6-0.7,1.1-1.2,1.4
			c-0.6,0.3-1.5,0.5-2.9,0.5h-1.5V62h18.7V59h-1.4c-1.4,0-2.4-0.2-3-0.5c-0.5-0.3-1-0.8-1.3-1.5c-0.3-0.7-0.5-1.8-0.5-3.4V22.2z"/>
		<path d="M103.3,22.2c0-2,0.1-3.3,0.4-4c0.3-0.7,0.7-1.2,1.3-1.6c0.6-0.4,1.6-0.6,2.9-0.6h1.4V13H90.7V16h1.5
			c1.4,0,2.4,0.1,2.9,0.4c0.6,0.3,1,0.8,1.2,1.4c0.3,0.6,0.4,1.8,0.4,3.7v32.3c0,1.7-0.1,2.9-0.4,3.5c-0.3,0.6-0.7,1.1-1.2,1.4
			c-0.6,0.3-1.5,0.5-2.9,0.5h-1.5V62h18.7V59H108c-1.4,0-2.4-0.2-3-0.5c-0.5-0.3-1-0.8-1.3-1.5c-0.3-0.7-0.5-1.8-0.5-3.4V22.2z"/>
		<path d="M77.2,22.2c0-2,0.1-3.3,0.4-4c0.3-0.7,0.7-1.2,1.3-1.6c0.6-0.4,1.6-0.6,2.9-0.6h1.4V13H64.6V16h1.5c1.4,0,2.4,0.1,2.9,0.4
			c0.6,0.3,1,0.8,1.2,1.4c0.3,0.6,0.4,1.8,0.4,3.7v32.3c0,1.7-0.1,2.9-0.4,3.5c-0.3,0.6-0.7,1.1-1.2,1.4c-0.6,0.3-1.5,0.5-2.9,0.5
			h-1.5V62h18.7V59h-1.4c-1.4,0-2.4-0.2-3-0.5c-0.5-0.3-1-0.8-1.3-1.5c-0.3-0.7-0.5-1.8-0.5-3.4V22.2z"/>
		<path d="M32.1,34.3l-2.4,3.3l2.4,3.2h145v-6.5H32.1z"/>
	</g>
</g>
</svg>
