<svg xmlns="http://www.w3.org/2000/svg" data-name="Layer 1" viewBox="0 0 72 72"><path d="M18 37a1 1 0 01-1-1V11a5.006 5.006 0 015-5H50a5.006 5.006 0 015 5V23.22a1 1 0 01-2 0V11a3 3 0 00-3-3H22a3 3 0 00-3 3V36A1 1 0 0118 37zM50 66H22a5.006 5.006 0 01-5-5V50a1 1 0 012 0V61a3 3 0 003 3H50a3 3 0 003-3V41a1 1 0 012 0V61A5.006 5.006 0 0150 66z"/><path d="M23 35.33a1 1 0 01-1-1V16a2 2 0 012-2H48a2 2 0 012 2V26.36a1 1 0 01-2 0V16H24V34.33A1 1 0 0123 35.33zM48 56H24a2 2 0 01-2-2V50a1 1 0 012 0v4H48V41a1 1 0 012 0V54A2 2 0 0148 56z"/><path d="M39,12H33a1,1,0,0,1,0-2h6a1,1,0,0,1,0,2Z"/><circle cx="36" cy="60" r="3"/><path d="M43,35H29a2.88,2.88,0,0,1-1.518-.42A1,1,0,0,1,27.16,33.2a1.077,1.077,0,0,1,.089-.121,1,1,0,0,1-1.189-.66A1.283,1.283,0,0,1,26,32V22a3,3,0,0,1,3-3H43a3,3,0,0,1,3,3V32A3,3,0,0,1,43,35ZM28.011,32.73a1,1,0,0,1,.527.15A.854.854,0,0,0,29,33H43a1,1,0,0,0,1-1V22a1,1,0,0,0-1-1H29a1,1,0,0,0-1,1v9.969a1,1,0,0,1-.229.79A1.017,1.017,0,0,1,28.011,32.73Z"/><path d="M44 44H28a1 1 0 010-2H44a1 1 0 010 2zM44 40H28a1 1 0 010-2H44a1 1 0 010 2zM44 48H28a1 1 0 010-2H44a1 1 0 010 2z"/><path d="M56 38a1 1 0 01-.683-.27l-4.064-3.8A3.4 3.4 0 0151.243 29 3.636 3.636 0 0156 28.788 3.64 3.64 0 0160.758 29a3.4 3.4 0 010 4.921L56.683 37.73A1 1 0 0156 38zm-2.258-8a1.6 1.6 0 00-1.111.443 1.4 1.4 0 000 2.041L56 35.631l3.38-3.159a1.4 1.4 0 00-.01-2.031h0a1.615 1.615 0 00-2.223 0l-.452.435a1 1 0 01-1.388 0l-.452-.435A1.6 1.6 0 0053.742 30zM23 51H9a3 3 0 01-3-3V38a3 3 0 013-3H19.741l8.773-4.874a1 1 0 011.426 1.216L26 42.176V48A3 3 0 0123 51zM9 37a1 1 0 00-1 1V48a1 1 0 001 1H23a1 1 0 001-1V42a1.022 1.022 0 01.06-.342l3.085-8.484-6.659 3.7A1 1 0 0120 37z"/><path d="M56 42H47a1 1 0 01-1-1V32A10 10 0 1156 42zm-8-2h8a8 8 0 10-8-8zM14 46H11a1 1 0 010-2h3a1 1 0 010 2zM19 46H17a1 1 0 010-2h2a1 1 0 010 2zM21 42H11a1 1 0 010-2H21a1 1 0 010 2z"/></svg>