<svg fill='#fff' xmlns="http://www.w3.org/2000/svg" data-name="Layer 1" viewBox="0 0 72 72"><path d="M63 54H9a3 3 0 01-3-3V17a3 3 0 013-3h4a1 1 0 010 2H9a1 1 0 00-1 1V51a1 1 0 001 1H63a1 1 0 001-1V17a1 1 0 00-1-1H59a1 1 0 010-2h4a3 3 0 013 3V51A3 3 0 0163 54zM46 66H26a1 1 0 01-1-1V63a5.006 5.006 0 015-5H42a5.006 5.006 0 015 5v2A1 1 0 0146 66zM27 64H45V63a3 3 0 00-3-3H30a3 3 0 00-3 3z"/><path d="M41 60H31a1 1 0 01-1-1V53a1 1 0 011-1H41a1 1 0 011 1v6A1 1 0 0141 60zm-9-2h8V54H32zM59 48H13a1 1 0 01-1-1V11a5.006 5.006 0 015-5H55a5.006 5.006 0 015 5V47A1 1 0 0159 48zM14 46H58V11a3 3 0 00-3-3H17a3 3 0 00-3 3z"/><circle cx="20" cy="12" r="2"/><circle cx="25" cy="12" r="2"/><circle cx="30" cy="12" r="2"/><path d="M59,18H13a1,1,0,0,1-1-1V11a5.006,5.006,0,0,1,5-5H55a5.006,5.006,0,0,1,5,5v6A1,1,0,0,1,59,18ZM14,16H58V11a3,3,0,0,0-3-3H17a3,3,0,0,0-3,3Z"/><path d="M54 13H48a1 1 0 010-2h6a1 1 0 010 2zM45 13H43a1 1 0 010-2h2a1 1 0 010 2z"/><path d="M51,42H21a3,3,0,0,1-3-3V25a3,3,0,0,1,3-3H51a3,3,0,0,1,3,3V39A3,3,0,0,1,51,42ZM21,24a1,1,0,0,0-1,1V39a1,1,0,0,0,1,1H51a1,1,0,0,0,1-1V25a1,1,0,0,0-1-1Z"/><path d="M30 37a1 1 0 01-.625-.219l-5-4a1 1 0 010-1.562l5-4a1 1 0 111.25 1.562L26.6 32l4.024 3.219A1 1 0 0130 37zM42 37a1 1 0 01-.625-1.781L45.4 32l-4.024-3.219a1 1 0 011.25-1.562l5 4a1 1 0 010 1.562l-5 4A1 1 0 0142 37zM34 37a1 1 0 01-.894-1.447l4-8a1 1 0 011.79.894l-4 8A1 1 0 0134 37z"/><path d="M63,54H9a3,3,0,0,1-3-3V47a1,1,0,0,1,1-1H65a1,1,0,0,1,1,1v4A3,3,0,0,1,63,54ZM8,48v3a1,1,0,0,0,1,1H63a1,1,0,0,0,1-1V48Z"/></svg>