<svg class="mainLogo" style="width:524px;height:54.8px" version="1.1" viewBox="0 0 524 54.8" x="0px" xml:space="preserve" xmlns="http://www.w3.org/2000/svg" xmlns:xlink="http://www.w3.org/1999/xlink" y="0px"><g style=" " xmlns="http://www.w3.org/2000/svg"><path d="M30.7,48.7c-4.3,4.1-9.2,6.1-15,5.5C8,53.5,1.1,46.8,0.2,39C0.1,38,0,36.8,0,35.7c0-11,0-21.9,0-32.9C0,1,0.6,0.2,2.5,0.4   c0.9,0.1,1.8,0,2.7,0c3.5,0,3.5,0,3.5,3.4c0,10.5,0,20.9,0,31.4c0,0.8,0,1.7,0.1,2.5c0.4,4.5,4,7.9,8.6,7.9   c4.5,0.1,8.3-3.1,8.9-7.5c0.2-1.2,0.2-2.5,0.2-3.7c0-10.3,0-20.7,0-31c0-2.9,0.1-3,2.8-3C35.9,0.4,35-0.5,35,6c0,9.9,0,19.8,0,29.8   c0,5.4,3,9.2,7.6,9.7c5.3,0.6,9.5-2.8,10-8.1c0.1-1,0.1-2.1,0.1-3.1c0-10.4,0-20.8,0-31.2c0-2.6,0.1-2.8,2.6-2.8   c7,0.1,5.9-0.9,5.9,5.8c0.1,10,0.1,20,0,30c0,8.5-5.1,15.4-13,17.5c-5.7,1.6-10.9,0.3-15.6-3.3C32.1,49.9,31.5,49.4,30.7,48.7z"></path><path d="M278.1,31.7c-3.8,0-7.2-0.1-10.7,0c-2,0.1-2.7-0.7-2.6-2.7c0.1-1.4,0.1-2.8,0-4.1c0-1.4,0.6-2,2-2c6,0,12,0,18,0   c1.4,0,2,0.7,2,2c0,9.1,0,18.2,0,27.3c0,1.5-0.7,2.1-2.1,2.1c-9-0.1-17.9,0.2-26.9-0.2c-13.5-0.7-24.5-13.3-24.2-27.2   c0.3-15.1,11.9-26.5,27-26.6c7.8,0,15.6,0,23.4,0c2.6,0,2.8,0.2,2.8,2.8c0,1.2-0.1,2.3,0,3.5c0.1,1.8-0.7,2.4-2.5,2.4   c-7.6-0.1-15.2,0-22.7,0c-6.4-0.1-11.8,2-15.7,7.2c-4.2,5.7-4.9,12-2.2,18.4c2.7,6.4,7.8,10.4,14.9,10.8c6,0.3,12,0.1,18,0.1   c0.5,0,1.4-0.6,1.4-1C278.1,40.4,278.1,36.2,278.1,31.7z"></path><path d="M340,27.5c3.7,3.9,4.6,8.8,4.4,14c-0.1,3.4-0.1,6.9,0,10.3c0,1.8-0.6,2.6-2.5,2.6c-7.2-0.1-6.1,0.8-6.2-6.1   c0-3.2,0-6.3,0-9.5c-0.1-4.3-2.8-7-7-7c-9,0-17.9,0-26.9-0.1c-1.7,0-2.1,0.6-2,2.2c0.1,5.9,0,11.8,0,17.8c0,2.5-0.2,2.7-2.7,2.7   c-6.9,0-5.9,0.8-5.9-5.9c0-7.5,0-15,0-22.5c0-2.7,0.2-3,2.9-3c11.4,0,22.7,0,34.1,0c5.2,0,8.3-3.6,7.4-8.4   c-0.7-3.3-3.1-5.4-6.8-5.5c-6-0.1-12,0-18,0c-5.7,0-11.4-0.1-17.1,0c-1.9,0-2.6-0.6-2.6-2.5c0.1-7.3-0.9-6.2,6-6.2   c10.1-0.1,20.1,0.1,30.2-0.1c7.2-0.1,12.5,2.8,15.5,9.2c2.9,6.2,1.7,12.1-2.5,17.4C340.3,27,340.2,27.1,340,27.5z"></path><path d="M515.3,31.8c-12.1,0-23.8,0-35.8,0c0,0.8-0.1,1.6-0.1,2.3c0,5.9,0,11.7,0,17.6c0,2.5-0.2,2.7-2.7,2.7c-1.2,0-2.5,0-3.7,0   c-1.6,0.1-2.2-0.7-2.2-2.3c0-16.5,0-33.1,0-49.6c0-1.6,0.7-2.2,2.3-2.2c7.6,0.1,6.3-1,6.4,6.2c0.1,4.8,0.1,9.6,0,14.5   c0,1.4,0.4,2,1.9,1.9c10.7,0,21.5,0,32.2,0c1.5,0,1.9-0.6,1.9-1.9c-0.1-6,0-12,0-18c0-2.5,0.2-2.7,2.7-2.7c6.9,0.1,5.9-0.9,5.9,5.9   c0,15,0,30,0,45.1c0,2.9-0.2,3.1-3,3.1c-6.5,0-5.6,0.6-5.7-5.6C515.3,43.2,515.3,37.7,515.3,31.8z"></path><path d="M93,0.4c14.7,0.1,26.6,12.2,26.6,27.1c-0.1,14.9-12.2,27-26.8,26.9C78,54.2,66.2,42,66.4,27.1C66.5,12.3,78.4,0.3,93,0.4z    M92.9,45.6c10,0,18-8,18-18.2c0-10.1-7.8-18.1-17.8-18.2c-10-0.1-18,7.9-18.1,18.1C74.9,37.4,82.9,45.6,92.9,45.6z"></path><path d="M433.4,0.5c6.1,0,12.1-0.2,18.2,0c7.8,0.3,14,7.1,14.3,15.2c0.3,7.7-5.6,15-13.2,15.8c-4.1,0.4-8.3,0.3-12.4,0.3   c-5.6,0-11.3,0.1-16.9,0c-1.6,0-2,0.5-2,2c0.1,6,0,12,0.1,18c0,2-0.7,2.7-2.7,2.7c-7-0.1-6,0.7-6-5.9c0-7.6,0-15.2,0-22.7   c0-2.6,0.3-2.8,2.8-2.8c11.4,0,22.9,0,34.3,0c4.9,0,8.1-3.5,7.3-8.1c-0.5-3.4-3.1-5.7-6.8-5.8c-5.2-0.1-10.3,0-15.5-0.1   c-6.5,0-13,0-19.4,0c-2.6,0-2.8-0.2-2.8-2.6c0-7.1-0.8-6,6-6.1C423.6,0.3,428.5,0.4,433.4,0.5C433.4,0.4,433.4,0.4,433.4,0.5z"></path><path d="M378.9,16.4c-2,3.7-3.8,6.8-5.6,10c-4.8,8.7-9.6,17.3-14.4,26.1c-0.8,1.4-1.7,2.1-3.3,2c-1.5-0.1-3,0-4.5,0   c-2.6-0.1-3-0.8-1.8-3c4.2-7.5,8.3-15.1,12.5-22.6c5-9,10-18.1,15-27.1c0.5-0.8,1.3-1.5,2-2.2c0.7,0.7,1.6,1.3,2,2.1   c9.1,16.4,18.2,32.9,27.3,49.4c1.6,2.8,1.1,3.2-2.1,3.5c-4.6,0.6-7.1-1.1-9.2-5.3c-5.2-10.3-11.1-20.3-16.7-30.5   C379.9,18.1,379.5,17.4,378.9,16.4z"></path>
<path d="M124,27.3c0-8.1,0-16.1,0-24.2c0-2.5,0.2-2.7,2.7-2.7c1.2,0,2.5,0,3.7,0c1.6-0.1,2.2,0.6,2.2,2.2c-0.1,4.5,0,9.1,0,13.6   c0,9,0,18.1,0,27.1c0,1.8,0.5,2.4,2.3,2.3c13.1-0.1,26.2,0,39.3,0c2.9,0,3.1,0.1,3,3c-0.1,6.6,0.9,5.8-5.6,5.8   c-14.8,0-29.6,0-44.4,0c-3,0-3.1-0.1-3.1-3.1C124,43.3,124,35.3,124,27.3z"></path><path d="M201.6,23c5.9,0,11.7,0,17.6,0c1.9,0,2.6,0.7,2.5,2.6c-0.1,7.2,0.8,6.2-6,6.3c-7.6,0-15.3,0.1-22.9,0   c-1.8,0-2.5,0.4-2.5,2.4c0.1,5.8,0.1,11.6,0,17.3c0,2.7-0.2,2.9-2.8,2.9c-6.9,0-5.9,0.7-5.9-5.9c0-7.4,0-14.7,0-22.1   c0-3.3,0.1-3.4,3.3-3.4C190.5,23,196.1,23,201.6,23z"></path><path d="M208.1,9.1c-7.9,0-15.8,0-23.8,0c-2.5,0-2.8-0.2-2.7-2.7c0-7-0.8-6,5.8-6c14.8,0,29.6,0,44.4,0c2.9,0,3.1,0.1,3,3   c0,6.7,0.7,5.6-5.7,5.7C222.2,9.1,215.1,9.1,208.1,9.1z"></path><path class="st0" d="M92.9,45.6c-10,0-18-8.2-17.9-18.3C75.1,17.1,83.1,9,93.1,9.1c10,0.1,17.8,8.2,17.8,18.2   C110.9,37.6,102.9,45.6,92.9,45.6z" fill="transparent" xmlns="http://www.w3.org/2000/svg"></path></g></svg>